<mxfile host="app.diagrams.net" modified="2021-03-08T07:12:52.738Z" agent="5.0 (Windows NT 10.0; Win64; x64) AppleWebKit/537.36 (KHTML, like Gecko) Chrome/88.0.4324.190 Safari/537.36" etag="Sqtadk6ZqcOaFHMRVmub" version="14.4.4" type="github">
  <diagram id="wFE0QG_FPsp0jaGvCLVb" name="Page-1">
    <mxGraphModel dx="782" dy="437" grid="1" gridSize="10" guides="1" tooltips="1" connect="1" arrows="1" fold="1" page="1" pageScale="1" pageWidth="850" pageHeight="1100" math="0" shadow="0">
      <root>
        <mxCell id="0" />
        <mxCell id="1" parent="0" />
        <mxCell id="IKa1LI6jLEkkOWYJtx2r-1" value="&lt;b&gt;&lt;font style=&quot;font-size: 13px&quot;&gt;上层服务&lt;/font&gt;&lt;/b&gt;" style="rounded=0;whiteSpace=wrap;html=1;fillColor=#ffe6cc;strokeColor=#d79b00;" vertex="1" parent="1">
          <mxGeometry x="280" y="110" width="220" height="20" as="geometry" />
        </mxCell>
        <mxCell id="IKa1LI6jLEkkOWYJtx2r-2" value="成员&lt;br&gt;变更" style="rounded=0;whiteSpace=wrap;html=1;fillColor=#f5f5f5;strokeColor=#666666;fontColor=#333333;" vertex="1" parent="1">
          <mxGeometry x="280" y="140" width="40" height="80" as="geometry" />
        </mxCell>
        <mxCell id="IKa1LI6jLEkkOWYJtx2r-3" value="选举" style="rounded=1;whiteSpace=wrap;html=1;fillColor=#f5f5f5;strokeColor=#666666;fontColor=#333333;" vertex="1" parent="1">
          <mxGeometry x="330" y="140" width="170" height="20" as="geometry" />
        </mxCell>
        <mxCell id="IKa1LI6jLEkkOWYJtx2r-4" value="日志" style="rounded=1;whiteSpace=wrap;html=1;fillColor=#f5f5f5;strokeColor=#666666;fontColor=#333333;" vertex="1" parent="1">
          <mxGeometry x="330" y="180" width="50" height="40" as="geometry" />
        </mxCell>
        <mxCell id="IKa1LI6jLEkkOWYJtx2r-5" value="日志&lt;br&gt;快照" style="rounded=1;whiteSpace=wrap;html=1;fillColor=#f5f5f5;strokeColor=#666666;fontColor=#333333;" vertex="1" parent="1">
          <mxGeometry x="390" y="180" width="50" height="40" as="geometry" />
        </mxCell>
        <mxCell id="IKa1LI6jLEkkOWYJtx2r-6" value="通信" style="rounded=1;whiteSpace=wrap;html=1;fillColor=#f5f5f5;strokeColor=#666666;fontColor=#333333;" vertex="1" parent="1">
          <mxGeometry x="450" y="180" width="50" height="40" as="geometry" />
        </mxCell>
      </root>
    </mxGraphModel>
  </diagram>
</mxfile>
